{
	"asset":{
		"generator":"Khronos glTF Blender I/O v4.0.44",
		"version":"2.0"
	},
	"scene":0,
	"scenes":[
		{
			"name":"Scene",
			"nodes":[
				0
			]
		}
	],
	"nodes":[
		{
			"mesh":0,
			"name":"frame"
		}
	],
	"materials":[
		{
			"doubleSided":true,
			"name":"frame",
			"pbrMetallicRoughness":{}
		}
	],
	"meshes":[
		{
			"name":"BezierCurve.001",
			"primitives":[
				{
					"attributes":{
						"POSITION":0,
						"NORMAL":1,
						"TEXCOORD_0":2
					},
					"indices":3,
					"material":0
				}
			]
		}
	],
	"accessors":[
		{
			"bufferView":0,
			"componentType":5126,
			"count":1316,
			"max":[
				-0.2753777503967285,
				3.416171073913574,
				5.260825157165527
			],
			"min":[
				-8.795619010925293,
				0.04301254078745842,
				0
			],
			"type":"VEC3"
		},
		{
			"bufferView":1,
			"componentType":5126,
			"count":1316,
			"type":"VEC3"
		},
		{
			"bufferView":2,
			"componentType":5126,
			"count":1316,
			"type":"VEC2"
		},
		{
			"bufferView":3,
			"componentType":5123,
			"count":2667,
			"type":"SCALAR"
		}
	],
	"bufferViews":[
		{
			"buffer":0,
			"byteLength":15792,
			"byteOffset":0,
			"target":34962
		},
		{
			"buffer":0,
			"byteLength":15792,
			"byteOffset":15792,
			"target":34962
		},
		{
			"buffer":0,
			"byteLength":10528,
			"byteOffset":31584,
			"target":34962
		},
		{
			"buffer":0,
			"byteLength":5334,
			"byteOffset":42112,
			"target":34963
		}
	],
	"buffers":[
		{
			"byteLength":47448,
			"uri":"frame.bin"
		}
	]
}
