{
	"asset":{
		"generator":"Khronos glTF Blender I/O v4.0.44",
		"version":"2.0"
	},
	"scene":0,
	"scenes":[
		{
			"name":"Scene",
			"nodes":[
				0
			]
		}
	],
	"nodes":[
		{
			"mesh":0,
			"name":"framedupe"
		}
	],
	"materials":[
		{
			"doubleSided":true,
			"name":"frame",
			"pbrMetallicRoughness":{}
		}
	],
	"meshes":[
		{
			"name":"BezierCurve.003",
			"primitives":[
				{
					"attributes":{
						"POSITION":0,
						"NORMAL":1,
						"TEXCOORD_0":2
					},
					"indices":3,
					"material":0
				}
			]
		}
	],
	"accessors":[
		{
			"bufferView":0,
			"componentType":5126,
			"count":908,
			"max":[
				0.6097840666770935,
				7.629189968109131,
				14.581560134887695
			],
			"min":[
				-17.189359664916992,
				0.9734922647476196,
				2.730579137802124
			],
			"type":"VEC3"
		},
		{
			"bufferView":1,
			"componentType":5126,
			"count":908,
			"type":"VEC3"
		},
		{
			"bufferView":2,
			"componentType":5126,
			"count":908,
			"type":"VEC2"
		},
		{
			"bufferView":3,
			"componentType":5123,
			"count":1380,
			"type":"SCALAR"
		}
	],
	"bufferViews":[
		{
			"buffer":0,
			"byteLength":10896,
			"byteOffset":0,
			"target":34962
		},
		{
			"buffer":0,
			"byteLength":10896,
			"byteOffset":10896,
			"target":34962
		},
		{
			"buffer":0,
			"byteLength":7264,
			"byteOffset":21792,
			"target":34962
		},
		{
			"buffer":0,
			"byteLength":2760,
			"byteOffset":29056,
			"target":34963
		}
	],
	"buffers":[
		{
			"byteLength":31816,
			"uri":"framedupe.bin"
		}
	]
}
