{
	"asset":{
		"generator":"Khronos glTF Blender I/O v4.0.44",
		"version":"2.0"
	},
	"scene":0,
	"scenes":[
		{
			"name":"Scene",
			"nodes":[
				0
			]
		}
	],
	"nodes":[
		{
			"mesh":0,
			"name":"lens"
		}
	],
	"materials":[
		{
			"doubleSided":true,
			"name":"lens",
			"pbrMetallicRoughness":{}
		}
	],
	"meshes":[
		{
			"name":"BezierCurve.002",
			"primitives":[
				{
					"attributes":{
						"POSITION":0,
						"NORMAL":1,
						"TEXCOORD_0":2
					},
					"indices":3,
					"material":0
				}
			]
		}
	],
	"accessors":[
		{
			"bufferView":0,
			"componentType":5126,
			"count":883,
			"max":[
				-0.3503910303115845,
				1.8865364789962769,
				3.793719530105591
			],
			"min":[
				-5.93564510345459,
				0.015224666334688663,
				-3.5390257835388184e-07
			],
			"type":"VEC3"
		},
		{
			"bufferView":1,
			"componentType":5126,
			"count":883,
			"type":"VEC3"
		},
		{
			"bufferView":2,
			"componentType":5126,
			"count":883,
			"type":"VEC2"
		},
		{
			"bufferView":3,
			"componentType":5123,
			"count":1341,
			"type":"SCALAR"
		}
	],
	"bufferViews":[
		{
			"buffer":0,
			"byteLength":10596,
			"byteOffset":0,
			"target":34962
		},
		{
			"buffer":0,
			"byteLength":10596,
			"byteOffset":10596,
			"target":34962
		},
		{
			"buffer":0,
			"byteLength":7064,
			"byteOffset":21192,
			"target":34962
		},
		{
			"buffer":0,
			"byteLength":2682,
			"byteOffset":28256,
			"target":34963
		}
	],
	"buffers":[
		{
			"byteLength":30940,
			"uri":"lens.bin"
		}
	]
}
